<svg width="21" height="20" viewBox="0 0 21 20" fill="none" xmlns="http://www.w3.org/2000/svg">
<path fill-rule="evenodd" clip-rule="evenodd" d="M7.55145 1.34835C8.27211 0.645088 9.24954 0.25 10.2687 0.25C11.2879 0.25 12.2653 0.645088 12.9859 1.34835C13.7066 2.05161 14.1115 3.00544 14.1115 4C14.1115 4.99456 13.7066 5.94839 12.9859 6.65165C12.2653 7.35491 11.2879 7.75 10.2687 7.75C9.24954 7.75 8.27211 7.35491 7.55145 6.65165C6.8308 5.94839 6.42593 4.99456 6.42593 4C6.42593 3.00544 6.8308 2.05161 7.55145 1.34835ZM10.2687 1.75C9.6572 1.75 9.07075 1.98705 8.63835 2.40901C8.20596 2.83097 7.96304 3.40326 7.96304 4C7.96304 4.59674 8.20596 5.16903 8.63835 5.59099C9.07075 6.01295 9.6572 6.25 10.2687 6.25C10.8802 6.25 11.4667 6.01295 11.899 5.59099C12.3314 5.16903 12.5744 4.59674 12.5744 4C12.5744 3.40326 12.3314 2.83097 11.899 2.40901C11.4667 1.98705 10.8802 1.75 10.2687 1.75Z" fill="#333333"/>
<path fill-rule="evenodd" clip-rule="evenodd" d="M3.93347 10.7654C5.61604 9.15327 7.89515 8.25 10.2687 8.25C12.6422 8.25 14.9214 9.15327 16.6039 10.7654C18.287 12.3779 19.2352 14.568 19.2352 16.8545V19.75H1.30225V16.8545C1.30225 14.568 2.25042 12.3779 3.93347 10.7654ZM10.2687 9.75C8.29381 9.75 6.40258 10.5018 5.01035 11.8357C3.61859 13.1692 2.83935 14.9748 2.83935 16.8545V18.25H17.698V16.8545C17.698 14.9748 16.9188 13.1692 15.5271 11.8357C14.1348 10.5018 12.2436 9.75 10.2687 9.75Z" fill="#333333"/>
</svg>
